<svg xmlns="http://www.w3.org/2000/svg" viewBox="0 0 600 600">
  <defs>
    <linearGradient id="g" x1="0" y1="0" x2="1" y2="1">
      <stop offset="0" stop-color="#fff3f7"/>
      <stop offset=".5" stop-color="#f7c9d9"/>
      <stop offset="1" stop-color="#e79bb3"/>
    </linearGradient>
    <radialGradient id="glow" cx=".5" cy=".5" r=".6">
      <stop offset="0" stop-color="#fff" stop-opacity=".8"/>
      <stop offset="1" stop-color="#fff" stop-opacity="0"/>
    </radialGradient>
  </defs>
  <rect width="600" height="600" fill="url(#g)"/>
  <circle cx="300" cy="300" r="260" fill="url(#glow)"/>
  <g transform="translate(300 300)">
    <path d="M0 90 C 0 40 -110 20 -110 -30 C -110 -80 -70 -100 -40 -90 C -15 -80 -5 -55 0 -35 C 5 -55 15 -80 40 -90 C 70 -100 110 -80 110 -30 C 110 20 0 90 0 90 Z"
          fill="#c9556f" opacity=".9"/>
    <path d="M0 90 C 0 40 -110 20 -110 -30 C -110 -80 -70 -100 -40 -90 C -15 -80 -5 -55 0 -35 C 5 -55 15 -80 40 -90 C 70 -100 110 -80 110 -30 C 110 20 0 90 0 90 Z"
          fill="none" stroke="#c9a24c" stroke-width="3" opacity=".6"/>
  </g>
  <text x="300" y="500" text-anchor="middle" font-family="Georgia,serif" font-style="italic" font-size="38" fill="#4a2b34">Für mein ein und alles</text>
  <text x="300" y="545" text-anchor="middle" font-family="Georgia,serif" font-size="22" fill="#c9a24c">❤ Testbild — ersetze /images/puzzle.svg ❤</text>
</svg>
